HIERARCHY
ROOT Hips
{
  OFFSET -15.479 4.772 -306.540
  CHANNELS 6 Xposition Yposition Zposition Zrotation Xrotation Yrotation
  JOINT LeftUpLeg
  {
    OFFSET 6.218 -5.956 1.326
    CHANNELS 6 Xposition Yposition Zposition Zrotation Xrotation Yrotation
    JOINT LeftLeg
    {
      OFFSET 0.000 -45.730 0.000
      CHANNELS 6 Xposition Yposition Zposition Zrotation Xrotation Yrotation
      JOINT LeftFoot
      {
        OFFSET -0.000 -36.755 -0.000
        CHANNELS 6 Xposition Yposition Zposition Zrotation Xrotation Yrotation
        End Site
        {
          OFFSET 0.000 -7.824 4.517
        }
      }
    }
  }
  JOINT RightUpLeg
  {
    OFFSET -6.561 -6.390 2.182
    CHANNELS 6 Xposition Yposition Zposition Zrotation Xrotation Yrotation
    JOINT RightLeg
    {
      OFFSET -0.000 -45.012 0.000
      CHANNELS 6 Xposition Yposition Zposition Zrotation Xrotation Yrotation
      JOINT RightFoot
      {
        OFFSET -0.000 -36.173 -0.000
        CHANNELS 6 Xposition Yposition Zposition Zrotation Xrotation Yrotation
        End Site
        {
          OFFSET 0.000 -7.777 4.490
        }
      }
    }
  }
  JOINT Spine
  {
    OFFSET 0.000 5.772 -5.772
    CHANNELS 6 Xposition Yposition Zposition Zrotation Xrotation Yrotation
    JOINT LeftShoulder
    {
      OFFSET -0.000 35.296 0.000
      CHANNELS 6 Xposition Yposition Zposition Zrotation Xrotation Yrotation
      JOINT LeftArm
      {
        OFFSET 13.558 0.000 -0.000
        CHANNELS 6 Xposition Yposition Zposition Zrotation Xrotation Yrotation
        JOINT LeftForeArm
        {
          OFFSET 27.305 0.000 0.000
          CHANNELS 6 Xposition Yposition Zposition Zrotation Xrotation Yrotation
          JOINT LeftHand
          {
            OFFSET 25.640 0.000 -0.000
            CHANNELS 6 Xposition Yposition Zposition Zrotation Xrotation Yrotation
            JOINT LeftHandThumb1
            {
            OFFSET 4.970 -0.620 3.390
            CHANNELS 6 Xposition Yposition Zposition Zrotation Xrotation Yrotation
              JOINT LeftHandThumb2
              {
              OFFSET 2.150 -0.000 0.000
              CHANNELS 6 Xposition Yposition Zposition Zrotation Xrotation Yrotation
                JOINT LeftHandThumb3
                {
                OFFSET 2.200 -0.000 0.000
                CHANNELS 6 Xposition Yposition Zposition Zrotation Xrotation Yrotation
                  JOINT LeftHandThumb4
                  {
                  OFFSET 1.700 -0.000 0.000
                  CHANNELS 6 Xposition Yposition Zposition Zrotation Xrotation Yrotation
                  }
                }
              }
            }
            JOINT LeftHandIndex1
            {
            OFFSET 8.730 0.680 2.070
            CHANNELS 6 Xposition Yposition Zposition Zrotation Xrotation Yrotation
              JOINT LeftHandIndex2
              {
              OFFSET 2.670 -0.000 0.000
              CHANNELS 6 Xposition Yposition Zposition Zrotation Xrotation Yrotation
                JOINT LeftHandIndex3
                {
                OFFSET 2.130 -0.000 0.000
                CHANNELS 6 Xposition Yposition Zposition Zrotation Xrotation Yrotation
                  JOINT LeftHandIndex4
                  {
                  OFFSET 1.800 -0.000 0.000
                  CHANNELS 6 Xposition Yposition Zposition Zrotation Xrotation Yrotation
                  }
                }
              }
            }
            JOINT LeftHandMiddle1
            {
            OFFSET 9.220 0.670 0.550
            CHANNELS 6 Xposition Yposition Zposition Zrotation Xrotation Yrotation
              JOINT LeftHandMiddle2
              {
              OFFSET 2.660 -0.000 0.000
              CHANNELS 6 Xposition Yposition Zposition Zrotation Xrotation Yrotation
                JOINT LeftHandMiddle3
                {
                OFFSET 2.280 -0.000 0.000
                CHANNELS 6 Xposition Yposition Zposition Zrotation Xrotation Yrotation
                  JOINT LeftHandMiddle4
                  {
                  OFFSET 1.500 -0.000 0.000
                  CHANNELS 6 Xposition Yposition Zposition Zrotation Xrotation Yrotation
                  }
                }
              }
            }
            JOINT LeftHandRing1
            {
            OFFSET 9.250 0.670 -1.130
            CHANNELS 6 Xposition Yposition Zposition Zrotation Xrotation Yrotation
              JOINT LeftHandRing2
              {
              OFFSET 2.470 -0.000 0.000
              CHANNELS 6 Xposition Yposition Zposition Zrotation Xrotation Yrotation
                JOINT LeftHandRing3
                {
                OFFSET 2.210 -0.000 0.000
                CHANNELS 6 Xposition Yposition Zposition Zrotation Xrotation Yrotation
                  JOINT LeftHandRing4
                  {
                  OFFSET 1.800 -0.000 0.000
                  CHANNELS 6 Xposition Yposition Zposition Zrotation Xrotation Yrotation
                  }
                }
              }
            }
            JOINT LeftHandPinky1
            {
            OFFSET 9.350 0.660 -2.720
            CHANNELS 6 Xposition Yposition Zposition Zrotation Xrotation Yrotation
              JOINT LeftHandPinky2
              {
              OFFSET 1.630 -0.000 0.000
              CHANNELS 6 Xposition Yposition Zposition Zrotation Xrotation Yrotation
                JOINT LeftHandPinky3
                {
                OFFSET 1.710 -0.000 0.000
                CHANNELS 6 Xposition Yposition Zposition Zrotation Xrotation Yrotation
                  JOINT LeftHandPinky4
                  {
                  OFFSET 1.800 -0.000 0.000
                  CHANNELS 6 Xposition Yposition Zposition Zrotation Xrotation Yrotation
                  }
                }
              }
            }
          }
        }
      }
    }
    JOINT RightShoulder
    {
      OFFSET -0.000 35.296 0.000
      CHANNELS 6 Xposition Yposition Zposition Zrotation Xrotation Yrotation
      JOINT RightArm
      {
        OFFSET -20.670 0.000 -0.000
        CHANNELS 6 Xposition Yposition Zposition Zrotation Xrotation Yrotation
        JOINT RightForeArm
        {
          OFFSET -26.701 0.000 0.000
          CHANNELS 6 Xposition Yposition Zposition Zrotation Xrotation Yrotation
          JOINT RightHand
          {
            OFFSET -26.152 0.000 -0.000
            CHANNELS 6 Xposition Yposition Zposition Zrotation Xrotation Yrotation
            JOINT RightHandThumb1
            {
            OFFSET -4.970 -0.620 3.390
            CHANNELS 6 Xposition Yposition Zposition Zrotation Xrotation Yrotation
              JOINT RightHandThumb2
              {
              OFFSET -2.150 0.000 0.000
              CHANNELS 6 Xposition Yposition Zposition Zrotation Xrotation Yrotation
                JOINT RightHandThumb3
                {
                OFFSET -2.200 0.000 0.000
                CHANNELS 6 Xposition Yposition Zposition Zrotation Xrotation Yrotation
                  JOINT RightHandThumb4
                  {
                  OFFSET -1.700 0.000 0.000
                  CHANNELS 6 Xposition Yposition Zposition Zrotation Xrotation Yrotation
                  }
                }
              }
            }
            JOINT RightHandIndex1
            {
            OFFSET -8.730 0.680 2.070
            CHANNELS 6 Xposition Yposition Zposition Zrotation Xrotation Yrotation
              JOINT RightHandIndex2
              {
              OFFSET -2.670 0.000 0.000
              CHANNELS 6 Xposition Yposition Zposition Zrotation Xrotation Yrotation
                JOINT RightHandIndex3
                {
                OFFSET -2.130 0.000 0.000
                CHANNELS 6 Xposition Yposition Zposition Zrotation Xrotation Yrotation
                  JOINT RightHandIndex4
                  {
                  OFFSET -1.800 0.000 0.000
                  CHANNELS 6 Xposition Yposition Zposition Zrotation Xrotation Yrotation
                  }
                }
              }
            }
            JOINT RightHandMiddle1
            {
            OFFSET -9.220 0.670 0.550
            CHANNELS 6 Xposition Yposition Zposition Zrotation Xrotation Yrotation
              JOINT RightHandMiddle2
              {
              OFFSET -2.660 0.000 0.000
              CHANNELS 6 Xposition Yposition Zposition Zrotation Xrotation Yrotation
                JOINT RightHandMiddle3
                {
                OFFSET -2.280 0.000 0.000
                CHANNELS 6 Xposition Yposition Zposition Zrotation Xrotation Yrotation
                  JOINT RightHandMiddle4
                  {
                  OFFSET -1.500 0.000 0.000
                  CHANNELS 6 Xposition Yposition Zposition Zrotation Xrotation Yrotation
                  }
                }
              }
            }
            JOINT RightHandRing1
            {
            OFFSET -9.250 0.670 -1.130
            CHANNELS 6 Xposition Yposition Zposition Zrotation Xrotation Yrotation
              JOINT RightHandRing2
              {
              OFFSET -2.470 0.000 0.000
              CHANNELS 6 Xposition Yposition Zposition Zrotation Xrotation Yrotation
                JOINT RightHandRing3
                {
                OFFSET -2.210 0.000 0.000
                CHANNELS 6 Xposition Yposition Zposition Zrotation Xrotation Yrotation
                  JOINT RightHandRing4
                  {
                  OFFSET -1.800 0.000 0.000
                  CHANNELS 6 Xposition Yposition Zposition Zrotation Xrotation Yrotation
                  }
                }
              }
            }
            JOINT RightHandPinky1
            {
            OFFSET -9.350 0.660 -2.720
            CHANNELS 6 Xposition Yposition Zposition Zrotation Xrotation Yrotation
              JOINT RightHandPinky2
              {
              OFFSET -1.630 0.000 0.000
              CHANNELS 6 Xposition Yposition Zposition Zrotation Xrotation Yrotation
                JOINT RightHandPinky3
                {
                OFFSET -1.710 0.000 0.000
                CHANNELS 6 Xposition Yposition Zposition Zrotation Xrotation Yrotation
                  JOINT RightHandPinky4
                  {
                  OFFSET -1.800 0.000 0.000
                  CHANNELS 6 Xposition Yposition Zposition Zrotation Xrotation Yrotation
                  }
                }
              }
            }
          }
        }
      }
    }
    JOINT Neck
    {
      OFFSET -0.000 35.296 0.000
      CHANNELS 6 Xposition Yposition Zposition Zrotation Xrotation Yrotation
      JOINT Head
      {
        OFFSET -0.000 19.540 -0.000
        CHANNELS 6 Xposition Yposition Zposition Zrotation Xrotation Yrotation
        End Site
        {
          OFFSET -0.000 0.078 -0.000
        }
      }
    }
  }
}
MOTION
Frames:	4
Frame Time:	0.0333333
-13.4771 -5.39345 -311.354 0.623553 18.3829 -7.93707 6.85568 -5.87401 2.1122 4.56936 -37.1109 5.59031 5.96046e-06 -38.8124 -2.38419e-05 -2.63715 26.3107 -1.42866e-06 2.98023e-06 -34.304 0 0.562893 -24.1755 0.755591 -6.83028 -6.79022 3.01645 15.9462 -39.2081 13.1029 8.9407e-06 -41.9727 -4.76837e-05 -10.3662 35.4864 1.04854e-06 8.9407e-06 -33.2834 -4.76837e-05 20.3799 -6.32126 13.4879 -5.96046e-06 5.40913 -5.4091 -0.170913 -14.4509 0.666622 -5.96046e-06 35.2962 -2.38419e-05 -41.0794 1.28066e-05 -1.21142 16.4841 1.49012e-06 -4.76837e-05 -17.296 -2.33514 -2.0506 26.0809 -1.49012e-06 2.38419e-05 7.5285 -1.05383 -7.9226 23.8067 2.98023e-06 -4.76837e-05 3.21654 0.129021 13.8197 0.0062 0.0497 0.0339 -1.61149e-43 0 0 0 0.0215 0 0 -1.61149e-43 0 0 0.022 0 0 -1.61149e-43 0 0 0.017 0 0 0 0 -0.0068 0.0873 0.0207 -1.61149e-43 0 0 0 0.0267 0 -3.20897e-43 0 0 0 0.0213 0 -4.00771e-43 0 0 0 0.018 0 0 0 0 -0.0067 0.0922 0.0055 -1.61149e-43 0 0 0 0.0266 0 -3.20897e-43 0 0 0 0.0228 0 -4.00771e-43 0 0 0 0.015 0 0 0 0 -0.0067 0.0925 -0.0113 -1.61149e-43 0 0 0 0.0247 0 -3.20897e-43 0 0 0 0.0221 0 -4.00771e-43 0 0 0 0.018 0 0 0 0 -0.0066 0.0935 -0.0272 -1.61149e-43 0 0 0 0.0163 0 -3.20897e-43 0 0 0 0.0171 0 -4.00771e-43 0 0 0 0.018 0 0 0 0 -5.96046e-06 35.2962 -2.38419e-05 32.9562 -1.81427e-06 0.940296 -21.2362 8.9407e-06 2.38419e-05 33.3796 -13.9678 9.36422 -25.3566 2.38419e-05 0 -3.83573e-06 1.70755e-06 20.6287 -25.5783 -1.19209e-05 -2.38419e-05 0.608538 0.0982529 -9.84719 -0.0062 0.0497 0.0339 1.61149e-43 0 0 0 0.0215 0 0 -1.61149e-43 0 0 0.022 0 0 -1.61149e-43 0 0 0.017 0 0 0 0 0.0068 0.0873 0.0207 1.61149e-43 0 0 0 0.0267 0 3.20897e-43 0 0 0 0.0213 0 4.00771e-43 0 0 0 0.018 0 0 0 0 0.0067 0.0922 0.0055 1.61149e-43 0 0 0 0.0266 0 3.20897e-43 0 0 0 0.0228 0 4.00771e-43 0 0 0 0.015 0 0 0 0 0.0067 0.0925 -0.0113 1.61149e-43 0 0 0 0.0247 0 3.20897e-43 0 0 0 0.0221 0 4.00771e-43 0 0 0 0.018 0 0 0 0 0.0066 0.0935 -0.0272 1.61149e-43 0 0 0 0.0163 0 3.20897e-43 0 0 0 0.0171 0 4.00771e-43 0 0 0 0.018 0 0 0 0 -5.96046e-06 35.2962 -2.38419e-05 10.0253 -3.7982 0.670934 -2.98023e-06 17.9721 4.76837e-05 9.66498e-06 -9.92512e-06 4.26887e-07 
-13.5963 -4.77524 -311.008 0.896231 18.2896 -7.49739 6.83267 -5.83911 2.20461 4.14601 -36.694 5.27655 -2.98023e-06 -38.743 4.76837e-05 -3.01177 26.4059 4.76614e-07 -5.96046e-06 -35.6066 0 0.790729 -26.5356 0.958405 -6.81863 -6.75249 3.01409 14.6134 -38.3116 11.9257 1.49012e-06 -42.6345 -9.53674e-05 -9.96235 34.7226 -1.03876e-06 -5.96046e-06 -32.7131 -2.38419e-05 19.087 -10.5148 13.9284 5.96046e-06 5.38718 -5.38723 -0.159069 -15.0512 0.813314 -2.98023e-06 35.2962 4.76837e-05 -38.5928 1.36604e-05 -0.806823 16.3383 4.47035e-06 -4.76837e-05 -14.3411 -2.44784 -2.19348 24.4986 3.72529e-06 -2.38419e-05 8.14636 -1.02749 -7.14031 22.842 -1.86265e-06 0 4.84736 0.173854 14.751 0.0062 0.0497 0.0339 -1.61149e-43 0 0 0 0.0215 0 0 -1.61149e-43 0 0 0.022 0 0 -1.61149e-43 0 0 0.017 0 0 0 0 -0.0068 0.0873 0.0207 -1.61149e-43 0 0 0 0.0267 0 -3.20897e-43 0 0 0 0.0213 0 -4.00771e-43 0 0 0 0.018 0 0 0 0 -0.0067 0.0922 0.0055 -1.61149e-43 0 0 0 0.0266 0 -3.20897e-43 0 0 0 0.0228 0 -4.00771e-43 0 0 0 0.015 0 0 0 0 -0.0067 0.0925 -0.0113 -1.61149e-43 0 0 0 0.0247 0 -3.20897e-43 0 0 0 0.0221 0 -4.00771e-43 0 0 0 0.018 0 0 0 0 -0.0066 0.0935 -0.0272 -1.61149e-43 0 0 0 0.0163 0 -3.20897e-43 0 0 0 0.0171 0 -4.00771e-43 0 0 0 0.018 0 0 0 0 -2.98023e-06 35.2962 4.76837e-05 32.2952 -1.28066e-06 0.637032 -20.6926 -5.96046e-06 -4.76837e-05 29.0433 -24.1062 10.7483 -23.5881 0 2.38419e-05 3.30722e-06 1.02453e-05 21.4875 -23.7635 0 0 -2.92129 0.268078 -9.27189 -0.0062 0.0497 0.0339 1.61149e-43 0 0 0 0.0215 0 0 -1.61149e-43 0 0 0.022 0 0 -1.61149e-43 0 0 0.017 0 0 0 0 0.0068 0.0873 0.0207 1.61149e-43 0 0 0 0.0267 0 3.20897e-43 0 0 0 0.0213 0 4.00771e-43 0 0 0 0.018 0 0 0 0 0.0067 0.0922 0.0055 1.61149e-43 0 0 0 0.0266 0 3.20897e-43 0 0 0 0.0228 0 4.00771e-43 0 0 0 0.015 0 0 0 0 0.0067 0.0925 -0.0113 1.61149e-43 0 0 0 0.0247 0 3.20897e-43 0 0 0 0.0221 0 4.00771e-43 0 0 0 0.018 0 0 0 0 0.0066 0.0935 -0.0272 1.61149e-43 0 0 0 0.0163 0 3.20897e-43 0 0 0 0.0171 0 4.00771e-43 0 0 0 0.018 0 0 0 0 -2.98023e-06 35.2962 4.76837e-05 8.53531 -3.72666 0.558892 -2.98023e-06 18.2719 -4.76837e-05 9.97848e-06 -1.0352e-05 0 
-13.6752 -2.37361 -310.55 0.73927 17.7678 -5.84737 6.71567 -5.57185 2.14407 3.06583 -34.9506 2.06495 2.98023e-06 -40.3302 -7.15256e-05 -3.35367 24.8706 3.15893 -4.47035e-06 -35.9756 2.38419e-05 0.926841 -30.3296 1.07681 -6.75539 -6.81398 3.10204 11.8253 -35.2258 10.4452 -8.9407e-06 -45.0465 -4.76837e-05 -8.57324 31.0338 7.47295e-07 5.96046e-06 -32.9847 7.15256e-05 17.9016 -11.2046 13.4531 0 5.43273 -5.43277 -0.334902 -15.6681 1.1603 0 35.2962 0 -36.0215 1.06722e-05 -1.41088 15.9662 -7.26432e-06 4.76837e-05 -8.55073 -3.23544 -1.58661 22.4431 3.72529e-06 -4.76837e-05 10.9313 -1.52413 -7.84127 21.5834 -2.98023e-06 0 7.81483 0.249633 17.043 0.0062 0.0497 0.0339 -1.61149e-43 0 0 0 0.0215 0 0 -1.61149e-43 0 0 0.022 0 0 -1.61149e-43 0 0 0.017 0 0 0 0 -0.0068 0.0873 0.0207 -1.61149e-43 0 0 0 0.0267 0 -3.20897e-43 0 0 0 0.0213 0 -4.00771e-43 0 0 0 0.018 0 0 0 0 -0.0067 0.0922 0.0055 -1.61149e-43 0 0 0 0.0266 0 -3.20897e-43 0 0 0 0.0228 0 -4.00771e-43 0 0 0 0.015 0 0 0 0 -0.0067 0.0925 -0.0113 -1.61149e-43 0 0 0 0.0247 0 -3.20897e-43 0 0 0 0.0221 0 -4.00771e-43 0 0 0 0.018 0 0 0 0 -0.0066 0.0935 -0.0272 -1.61149e-43 0 0 0 0.0163 0 -3.20897e-43 0 0 0 0.0171 0 -4.00771e-43 0 0 0 0.018 0 0 0 0 0 35.2962 0 32.1795 -2.69472e-06 1.11902 -20.1295 5.96046e-06 -7.15256e-05 17.8899 -33.1802 9.35384 -21.956 7.15256e-05 -2.38419e-05 1.45534e-05 -6.83019e-06 21.1973 -22.5002 -4.76837e-05 2.38419e-05 -6.76618 0.096204 0.0695871 -0.0062 0.0497 0.0339 1.61149e-43 0 0 0 0.0215 0 0 -1.61149e-43 0 0 0.022 0 0 -1.61149e-43 0 0 0.017 0 0 0 0 0.0068 0.0873 0.0207 1.61149e-43 0 0 0 0.0267 0 3.20897e-43 0 0 0 0.0213 0 4.00771e-43 0 0 0 0.018 0 0 0 0 0.0067 0.0922 0.0055 1.61149e-43 0 0 0 0.0266 0 3.20897e-43 0 0 0 0.0228 0 4.00771e-43 0 0 0 0.015 0 0 0 0 0.0067 0.0925 -0.0113 1.61149e-43 0 0 0 0.0247 0 3.20897e-43 0 0 0 0.0221 0 4.00771e-43 0 0 0 0.018 0 0 0 0 0.0066 0.0935 -0.0272 1.61149e-43 0 0 0 0.0163 0 3.20897e-43 0 0 0 0.0171 0 4.00771e-43 0 0 0 0.018 0 0 0 0 0 35.2962 0 8.59768 -3.9553 0.597525 -2.98023e-06 18.6926 0 9.47155e-06 -1.00318e-05 0 
-13.7101 -0.516919 -310.325 0.825631 17.3232 -4.91639 6.55652 -5.47071 2.14503 2.61987 -32.703 4.20694 -8.9407e-06 -42.0024 2.38419e-05 -2.2639 22.4352 -4.61843e-07 0 -36.1974 -4.76837e-05 1.11913 -32.4419 1.26743 -6.64073 -6.10628 2.86031 8.63669 -32.932 7.56813 -5.96046e-06 -46.1349 0 -6.69682 26.9993 4.79103e-07 -2.98023e-06 -32.8224 -7.15256e-05 16.7817 -13.3903 13.2907 1.49012e-05 5.5267 -5.52678 -0.656252 -16.2781 1.58601 -5.96046e-06 35.2962 7.15256e-05 -32.3827 1.10991e-05 -3.10497 15.1249 5.96046e-06 2.38419e-05 -3.03368 -4.12863 0.274999 23.2217 2.98023e-06 -2.38419e-05 9.27408 -0.939374 -5.73326 22.4344 2.98023e-06 2.38419e-05 10.8824 0.399444 15.3773 0.0062 0.0497 0.0339 -1.61149e-43 0 0 0 0.0215 0 0 -1.61149e-43 0 0 0.022 0 0 -1.61149e-43 0 0 0.017 0 0 0 0 -0.0068 0.0873 0.0207 -1.61149e-43 0 0 0 0.0267 0 -3.20897e-43 0 0 0 0.0213 0 -4.00771e-43 0 0 0 0.018 0 0 0 0 -0.0067 0.0922 0.0055 -1.61149e-43 0 0 0 0.0266 0 -3.20897e-43 0 0 0 0.0228 0 -4.00771e-43 0 0 0 0.015 0 0 0 0 -0.0067 0.0925 -0.0113 -1.61149e-43 0 0 0 0.0247 0 -3.20897e-43 0 0 0 0.0221 0 -4.00771e-43 0 0 0 0.018 0 0 0 0 -0.0066 0.0935 -0.0272 -1.61149e-43 0 0 0 0.0163 0 -3.20897e-43 0 0 0 0.0171 0 -4.00771e-43 0 0 0 0.018 0 0 0 0 -5.96046e-06 35.2962 7.15256e-05 31.5581 -4.6424e-06 2.44296 -19.2199 2.98023e-06 -0.000119209 2.94945 -10.0518 4.38339 -21.0168 -2.98023e-05 4.76837e-05 -6.05149 -2.0269 18.4501 -22.1064 0 -2.38419e-05 -9.3547 0.0998694 -0.525068 -0.0062 0.0497 0.0339 1.61149e-43 0 0 0 0.0215 0 0 -1.61149e-43 0 0 0.022 0 0 -1.61149e-43 0 0 0.017 0 0 0 0 0.0068 0.0873 0.0207 1.61149e-43 0 0 0 0.0267 0 3.20897e-43 0 0 0 0.0213 0 4.00771e-43 0 0 0 0.018 0 0 0 0 0.0067 0.0922 0.0055 1.61149e-43 0 0 0 0.0266 0 3.20897e-43 0 0 0 0.0228 0 4.00771e-43 0 0 0 0.015 0 0 0 0 0.0067 0.0925 -0.0113 1.61149e-43 0 0 0 0.0247 0 3.20897e-43 0 0 0 0.0221 0 4.00771e-43 0 0 0 0.018 0 0 0 0 0.0066 0.0935 -0.0272 1.61149e-43 0 0 0 0.0163 0 3.20897e-43 0 0 0 0.0171 0 4.00771e-43 0 0 0 0.018 0 0 0 0 -5.96046e-06 35.2962 7.15256e-05 8.74367 -3.02817 0.465511 2.98023e-06 19.4616 0 8.91126e-06 -9.60495e-06 6.4033e-07 
